<mxfile host="app.diagrams.net" modified="2021-02-18T10:07:06.053Z" agent="5.0 (Windows NT 10.0; Win64; x64) AppleWebKit/537.36 (KHTML, like Gecko) Chrome/88.0.4324.150 Safari/537.36 Edg/88.0.705.68" etag="8ZzQmW5CtVg0pOvz3Ll9" version="14.3.0" type="github">
  <diagram id="yLxltU8lNGUZ_10pAvVA" name="Page-1">
    <mxGraphModel dx="1422" dy="794" grid="1" gridSize="10" guides="1" tooltips="1" connect="1" arrows="1" fold="1" page="1" pageScale="1" pageWidth="827" pageHeight="1169" math="0" shadow="0">
      <root>
        <mxCell id="0" />
        <mxCell id="1" parent="0" />
        <mxCell id="K75aB_aCVCj8izU0NDLz-1" value="" style="strokeWidth=1;shadow=0;dashed=0;align=center;html=1;shape=mxgraph.mockup.containers.browserWindow;rSize=0;strokeColor=#666666;strokeColor2=#008cff;strokeColor3=#c4c4c4;mainText=,;recursiveResize=0;" vertex="1" parent="1">
          <mxGeometry x="40" y="40" width="760" height="520" as="geometry" />
        </mxCell>
        <mxCell id="K75aB_aCVCj8izU0NDLz-2" value="Dragged" style="strokeWidth=1;shadow=0;dashed=0;align=center;html=1;shape=mxgraph.mockup.containers.anchor;fontSize=17;fontColor=#666666;align=left;" vertex="1" parent="K75aB_aCVCj8izU0NDLz-1">
          <mxGeometry x="60" y="12" width="110" height="26" as="geometry" />
        </mxCell>
        <mxCell id="K75aB_aCVCj8izU0NDLz-3" value="https://www.dragged.it" style="strokeWidth=1;shadow=0;dashed=0;align=center;html=1;shape=mxgraph.mockup.containers.anchor;rSize=0;fontSize=17;fontColor=#666666;align=left;" vertex="1" parent="K75aB_aCVCj8izU0NDLz-1">
          <mxGeometry x="130" y="60" width="250" height="26" as="geometry" />
        </mxCell>
        <mxCell id="K75aB_aCVCj8izU0NDLz-5" value="Punto dove prendere l&#39;immagine" style="rounded=1;whiteSpace=wrap;html=1;" vertex="1" parent="K75aB_aCVCj8izU0NDLz-1">
          <mxGeometry x="26" y="140" width="120" height="60" as="geometry" />
        </mxCell>
        <mxCell id="K75aB_aCVCj8izU0NDLz-6" value="Punto dove rilasciare l&#39;immagine per avere l azione completa" style="rounded=1;whiteSpace=wrap;html=1;" vertex="1" parent="K75aB_aCVCj8izU0NDLz-1">
          <mxGeometry x="610" y="140" width="120" height="60" as="geometry" />
        </mxCell>
        <mxCell id="K75aB_aCVCj8izU0NDLz-7" value="Quando completo l&#39;azione faccio apparire uno smile randomico al centro della pagina" style="text;html=1;strokeColor=none;fillColor=none;align=center;verticalAlign=middle;whiteSpace=wrap;rounded=0;" vertex="1" parent="K75aB_aCVCj8izU0NDLz-1">
          <mxGeometry x="289" y="270" width="170" height="70" as="geometry" />
        </mxCell>
      </root>
    </mxGraphModel>
  </diagram>
</mxfile>
